<svg width="598" height="418" viewBox="0 0 598 418" fill="none" xmlns="http://www.w3.org/2000/svg">
<path d="M435.641 249.793C456.635 247.714 471.969 229.01 469.89 208.016C467.811 187.022 449.107 171.689 428.113 173.768C407.119 175.846 391.786 194.551 393.864 215.545C395.943 236.538 414.648 251.872 435.641 249.793Z" fill="#FF8A57"></path>
<path d="M589.8 184.7L467.6 22.9999C457 8.79991 440.2 0.399902 422.5 0.399902H35.7C16 0.399902 0.0999756 16.2999 0.0999756 35.9999V382C0.0999756 401.6 16 417.5 35.6 417.5H422.9C440.7 417.5 457.4 409.1 468 394.9L589.8 233.2C600.6 218.9 600.6 199.1 589.8 184.7ZM422.1 358.4H59.4V111.6L157 209.5L169.8 163L241 239.3H173.8V289.8L331.8 289.5L331.5 132.3H281V191.6L186.7 98.4999L175.4 140.9L93.4 59.6999H422L533.2 209.4L422.1 358.4Z" fill="#FF8A57"></path>
</svg>