<svg width="16" height="16" viewBox="0 0 16 16" fill="none" xmlns="http://www.w3.org/2000/svg">
<path fill-rule="evenodd" clip-rule="evenodd" d="M12.164 3.9861C12.2942 3.98636 12.4189 4.03734 12.5109 4.12787C12.5566 4.17271 12.5928 4.22597 12.6176 4.28461C12.6423 4.34324 12.655 4.4061 12.6551 4.46958L12.6663 12.1838C12.6663 12.2472 12.6536 12.3101 12.6289 12.3687C12.6042 12.4273 12.568 12.4806 12.5223 12.5254C12.4766 12.5702 12.4224 12.6058 12.3628 12.63C12.3031 12.6542 12.2392 12.6667 12.1747 12.6666H4.8074L5.23662 11.9348H3.33301V4.46958C3.33284 4.40607 3.3455 4.34316 3.37025 4.2845C3.395 4.22585 3.43135 4.17261 3.4772 4.12787C3.56921 4.0374 3.69391 3.98643 3.82403 3.9861H5.88976V3.94755C5.88967 3.86682 5.90579 3.78686 5.93719 3.71227C5.96859 3.63767 6.01465 3.56991 6.07273 3.51285C6.13082 3.4558 6.19979 3.41057 6.27568 3.37978C6.35157 3.34898 6.4329 3.33322 6.515 3.33339C6.597 3.33158 6.6784 3.34741 6.75353 3.37978C6.8679 3.42607 6.96569 3.50478 7.03444 3.60588C7.10318 3.70699 7.13978 3.82592 7.13957 3.94755V3.9861H8.8372V3.94755C8.84249 3.78804 8.91064 3.63681 9.02726 3.52582C9.14387 3.41483 9.29981 3.35278 9.4621 3.35278C9.6244 3.35278 9.78033 3.41483 9.89695 3.52582C10.0136 3.63681 10.0817 3.78804 10.087 3.94755V3.9861H12.164ZM7.14156 5.21506V6.04221H5.89176V5.21506H4.58481V6.54137H11.4039V5.21506H10.087V6.04221H8.83919V5.21506H7.14156ZM5.51834 11.4546H11.4059V7.76772H4.58481V10.7157H5.95156L5.51834 11.4546ZM10.3017 9.75319C10.4309 9.6264 10.5039 9.45454 10.5048 9.27506C10.5056 9.1859 10.4882 9.09748 10.4538 9.01501C10.4193 8.93254 10.3684 8.85768 10.3041 8.79484C10.2397 8.73212 10.1634 8.68253 10.0795 8.64889C9.99554 8.61525 9.90569 8.59824 9.81507 8.59883C9.72292 8.59602 9.63113 8.61143 9.54515 8.64417C9.45917 8.6769 9.38076 8.72628 9.31456 8.78938C9.24836 8.85248 9.19573 8.92802 9.15979 9.0115C9.12385 9.09499 9.10533 9.18472 9.10533 9.27538C9.10533 9.36604 9.12385 9.45578 9.15979 9.53926C9.19573 9.62275 9.24836 9.69829 9.31456 9.76139C9.38076 9.82449 9.45917 9.87387 9.54515 9.9066C9.63113 9.93933 9.72292 9.95475 9.81507 9.95194C9.99759 9.95142 10.1725 9.87998 10.3017 9.75319ZM8.6024 9.27503C8.6017 9.45445 8.52886 9.62631 8.39978 9.75312C8.2707 9.87993 8.09585 9.95139 7.91338 9.9519C7.82255 9.95196 7.73259 9.93438 7.64867 9.90019C7.56476 9.86599 7.48853 9.81585 7.42436 9.75263C7.36074 9.68989 7.31037 9.61538 7.27616 9.53341C7.24195 9.45144 7.22458 9.36363 7.22503 9.27503C7.22573 9.09567 7.29859 8.92387 7.42769 8.79717C7.5568 8.67046 7.73165 8.59915 7.91405 8.5988C8.00456 8.5983 8.09428 8.61535 8.17808 8.64898C8.26188 8.68262 8.33811 8.73217 8.40241 8.79481C8.46662 8.8577 8.51739 8.93258 8.55174 9.01505C8.58608 9.09752 8.60331 9.18591 8.6024 9.27503ZM6.49562 9.75316C6.62481 9.62637 6.6978 9.45451 6.69868 9.27503C6.6994 9.18594 6.68209 9.0976 6.64775 9.01516C6.61342 8.93271 6.56274 8.85781 6.49868 8.79481C6.43426 8.73215 6.35791 8.68259 6.27401 8.64896C6.1901 8.61533 6.10027 8.59828 6.00966 8.5988C5.82726 8.59915 5.65241 8.67046 5.5233 8.79717C5.3942 8.92387 5.32134 9.09567 5.32064 9.27503C5.32 9.36366 5.3373 9.45152 5.37152 9.53352C5.40574 9.61551 5.4562 9.68999 5.51997 9.75263C5.5841 9.81591 5.66031 9.86609 5.74424 9.90029C5.82817 9.93449 5.91815 9.95203 6.00899 9.9519C6.19152 9.95139 6.36644 9.87995 6.49562 9.75316Z" fill="#FF8A57"/>
</svg>
