<svg width="16" height="16" viewBox="0 0 16 16" fill="none" xmlns="http://www.w3.org/2000/svg">
<path fill-rule="evenodd" clip-rule="evenodd" d="M2.6758 13.3334L7.96916 13.3246L7.96652 12.0164L4.11923 12.0227L4.11558 10.2131L6.16441 10.21L6.16156 8.90175L4.11294 8.90488L4.10929 7.0963L6.15762 7.09317L6.15477 5.78494L4.10665 5.78807L4.10301 3.98109L7.8424 3.97492L7.83976 2.66669L2.6543 2.67525L2.6758 13.3334ZM13.321 6.24907L12.3699 7.11259L11.6184 6.43517L11.625 9.6905L10.8459 9.27543L10.8513 11.9495L9.4588 11.9518L9.45192 8.53668L10.2455 8.95611L10.2404 6.43971L9.49382 7.11734L8.53931 6.25696L10.926 4.09032L13.321 6.24907ZM10.9295 5.81423L10.9329 5.81732L10.9263 5.81719L10.9295 5.81423Z" fill="#FF8A57"/>
</svg>
