<svg width="16" height="16" viewBox="0 0 16 16" fill="none" xmlns="http://www.w3.org/2000/svg">
<path fill-rule="evenodd" clip-rule="evenodd" d="M9.60045 4.79497L5.13831 4.80304L5.13603 3.56361L9.59817 3.55555C10.1269 3.55459 10.6345 3.7617 11.009 4.13132C11.3836 4.50094 11.5946 5.00279 11.5956 5.52645L11.5956 5.56935C11.5966 6.093 11.3875 6.59561 11.0143 6.96659C10.641 7.33756 10.1343 7.5465 9.60553 7.54746L4.65844 7.5564C4.46158 7.55676 4.27293 7.63454 4.13399 7.77265C3.99503 7.91076 3.91718 8.09788 3.91754 8.29282C3.91771 8.38929 3.93709 8.4848 3.97455 8.5739C4.01202 8.663 4.06683 8.7439 4.13585 8.81197C4.20487 8.88005 4.28677 8.93401 4.37689 8.97076C4.467 9.00751 4.56352 9.02631 4.66093 9.0261L7.49345 9.02098L7.49345 9.0215L9.07367 9.01865L8.65917 9.72125L11.0113 9.717L10.3414 9.05596L11.1916 8.21086L13.3327 10.324L11.1994 12.4444L10.3461 11.6024L11.0152 10.9375L7.93345 10.9431L8.34363 10.2534L7.49573 10.2549L7.49574 10.2604L4.66366 10.2655L4.66344 10.2655C4.40167 10.2661 4.14238 10.2155 3.90037 10.1168C3.65828 10.0181 3.43818 9.87313 3.25266 9.69013C3.06714 9.50714 2.91987 9.28975 2.81922 9.0504C2.71857 8.81106 2.6665 8.5544 2.66602 8.29508C2.66505 7.7714 2.8742 7.2688 3.24742 6.89784C3.62064 6.52687 4.12738 6.31793 4.65616 6.31697L9.60324 6.30803C9.8001 6.30768 9.98875 6.22989 10.1277 6.09178C10.2666 5.95369 10.3445 5.76658 10.3441 5.57161L10.344 5.52871C10.3437 5.33374 10.2651 5.14692 10.1257 5.00932C9.98625 4.87172 9.79732 4.79462 9.60045 4.79497ZM11.6261 10.3306L11.6296 10.3271L11.6262 10.3238L11.6261 10.3306Z" fill="#FF8A57"/>
</svg>
