<svg width="550" height="398" viewBox="0 0 550 398" fill="none" xmlns="http://www.w3.org/2000/svg">
<path d="M456.8 35.8H345.5L366.3 0H43.2C19.4 0 0.100006 19.3 0.100006 43.1V262.5C0.100006 279.7 6.50001 296.3 18.1 309.1C29.7 321.9 45.7 330 62.9 331.7L65.1 331.9L65.7 334.1C70.6 352.4 81.3 368.6 96.3 380.1C111.3 391.6 129.7 397.9 148.6 398C167.5 398 185.9 391.8 201 380.4C216 368.9 226.9 352.8 231.8 334.5L232.5 332H322.7L323.3 334.5C328.2 352.7 339 368.8 354 380.3C369 391.8 387.4 398 406.3 398C425.2 398 443.6 391.8 458.6 380.3C473.6 368.8 484.4 352.7 489.3 334.5L489.9 332L516.4 331.9C534.8 331.8 549.7 316.9 549.7 298.5V160.2L456.8 35.8ZM148.9 345.9C130.6 345.9 115.7 331 115.7 312.7C115.7 294.4 130.6 279.5 148.9 279.5C167.2 279.5 182.1 294.4 182.1 312.7C182.1 331 167.2 345.9 148.9 345.9ZM406.6 345.9C388.3 345.9 373.4 331 373.4 312.7C373.4 294.4 388.3 279.5 406.6 279.5C424.9 279.5 439.8 294.4 439.8 312.7C439.7 331 424.9 345.9 406.6 345.9ZM481.8 271.8L480.8 270.1C473.3 257.1 462.4 246.2 449.4 238.7C436.3 231.2 421.5 227.2 406.5 227.2C391.4 227.2 376.6 231.2 363.6 238.7C350.5 246.2 339.7 257.1 332.2 270.1L331.2 271.8H224.3L223.3 270.1C215.7 257.1 204.9 246.3 191.8 238.8C178.7 231.3 164 227.4 148.9 227.4C133.8 227.4 119.1 231.3 106 238.8C92.9 246.3 82.1 257.1 74.5 270.1L73.5 271.8H69.7C64.5 271.8 60.4 267.6 60.5 262.4V60.4L331.8 59.8L311.1 95.6H425.9L489.3 180.2V271.9H481.8V271.8Z" fill="#FF8A57"/>
</svg>
