<svg width="436" height="466" viewBox="0 0 436 466" fill="none" xmlns="http://www.w3.org/2000/svg">
<path fill-rule="evenodd" clip-rule="evenodd" d="M436 39.6002V189.6H435.8C436.5 231.6 427.3 273.1 409.1 310.9C390.8 348.7 364 381.7 330.8 407.3C299.7 432.1 263.8 450.9 226 463.2L218.1 465.4L210.8 463.5C172.7 452 137.1 433.5 105.9 408.9C36.6 354.5 0 278.7 0 189.4V35.3002C0 16.2002 15.5 0.700195 34.6 0.700195H399.9L377.6 39.6002H436ZM295.6 359.1C321.4 339.1 342.2 313.4 356.3 283.9C370.4 254.4 377.3 222.1 376.5 189.4V104.4H340.2L365.6 60.3002H59.1V189.4C59.1 260.1 86.5 317.6 140.3 360.4C163.6 378.7 188.5 392.6 218 403.3C245.8 392.4 271.4 378.9 295.6 359.1ZM203.8 294.8L315 174.8L274.1 136.8L200.7 215.7L159 176.8L121 217.7L203.8 294.8Z" fill="#FF8A57"/>
</svg>
